<?xml version="1.0"?>
<svg xmlns="http://www.w3.org/2000/svg" viewBox="0 0 64 64" width="512" height="512"><g id="Customer-headphone-service-gear"><path d="M61,29v6a2.006,2.006,0,0,1-2,2H55.99a2,2,0,0,0-1.91,1.42,22.876,22.876,0,0,1-1.92,4.65,1.988,1.988,0,0,0,.34,2.36l2.13,2.13a1.992,1.992,0,0,1,0,2.82l-4.25,4.25a1.992,1.992,0,0,1-2.82,0L45.43,52.5a1.988,1.988,0,0,0-2.36-.34,22.876,22.876,0,0,1-4.65,1.92A2,2,0,0,0,37,55.99V59a2.006,2.006,0,0,1-2,2H29a2.006,2.006,0,0,1-2-2V55.99a2,2,0,0,0-1.42-1.91,22.876,22.876,0,0,1-4.65-1.92,1.988,1.988,0,0,0-2.36.34l-2.13,2.13a1.992,1.992,0,0,1-2.82,0L9.37,50.38a1.992,1.992,0,0,1,0-2.82l2.13-2.13a1.988,1.988,0,0,0,.34-2.36,22.876,22.876,0,0,1-1.92-4.65A2,2,0,0,0,8.01,37H5a2.006,2.006,0,0,1-2-2V29a2.006,2.006,0,0,1,2-2H8.01a2,2,0,0,0,1.91-1.42,22.876,22.876,0,0,1,1.92-4.65,1.988,1.988,0,0,0-.34-2.36L9.37,16.44a1.992,1.992,0,0,1,0-2.82l4.25-4.25a1.992,1.992,0,0,1,2.82,0l2.13,2.13a1.988,1.988,0,0,0,2.36.34,22.876,22.876,0,0,1,4.65-1.92A2,2,0,0,0,27,8.01V5a2.006,2.006,0,0,1,2-2h6a2.006,2.006,0,0,1,2,2V8.01a2,2,0,0,0,1.42,1.91,22.876,22.876,0,0,1,4.65,1.92,1.988,1.988,0,0,0,2.36-.34l2.13-2.13a1.992,1.992,0,0,1,2.82,0l4.25,4.25a1.992,1.992,0,0,1,0,2.82L52.5,18.57a1.988,1.988,0,0,0-.34,2.36,22.876,22.876,0,0,1,1.92,4.65A2,2,0,0,0,55.99,27H59A2.006,2.006,0,0,1,61,29ZM49,32A17,17,0,1,0,32,49,17,17,0,0,0,49,32Z" style="fill:#78b9eb"/><path d="M59,26H55.994a.987.987,0,0,1-.949-.7,23.9,23.9,0,0,0-2.011-4.852.989.989,0,0,1,.173-1.169l2.127-2.127a3,3,0,0,0,0-4.243L51.092,8.666a3.071,3.071,0,0,0-4.243,0l-2.127,2.126a.991.991,0,0,1-1.17.174A23.872,23.872,0,0,0,38.7,8.955a.987.987,0,0,1-.7-.949V5a3,3,0,0,0-3-3H29a3,3,0,0,0-3,3V8.006a.987.987,0,0,1-.7.949,23.9,23.9,0,0,0-4.852,2.011.992.992,0,0,1-1.169-.173L17.151,8.666a3.071,3.071,0,0,0-4.243,0L8.666,12.908a3,3,0,0,0,0,4.243l2.126,2.127a.989.989,0,0,1,.174,1.17A23.872,23.872,0,0,0,8.955,25.3a.987.987,0,0,1-.949.7H5a3,3,0,0,0-3,3v6a3,3,0,0,0,3,3H8.006a.987.987,0,0,1,.949.7,23.9,23.9,0,0,0,2.011,4.852.989.989,0,0,1-.173,1.169L8.666,46.849a3,3,0,0,0,0,4.243l4.242,4.242a3.07,3.07,0,0,0,4.243,0l2.127-2.126a.991.991,0,0,1,1.17-.174A23.872,23.872,0,0,0,25.3,55.045a.987.987,0,0,1,.7.949V59a3,3,0,0,0,3,3h6a3,3,0,0,0,3-3V55.994a.987.987,0,0,1,.7-.949,23.9,23.9,0,0,0,4.852-2.011.989.989,0,0,1,1.169.173l2.127,2.127a3.07,3.07,0,0,0,4.243,0l4.242-4.242a3,3,0,0,0,0-4.243l-2.126-2.127a.989.989,0,0,1-.174-1.17A23.872,23.872,0,0,0,55.045,38.7a.987.987,0,0,1,.949-.7H59a3,3,0,0,0,3-3V29A3,3,0,0,0,59,26Zm1,9a1,1,0,0,1-1,1H55.994a3,3,0,0,0-2.869,2.144,21.946,21.946,0,0,1-1.843,4.444,3,3,0,0,0,.511,3.548l2.127,2.127a1,1,0,0,1,0,1.415L49.678,53.92a1,1,0,0,1-1.415,0l-2.127-2.128a3,3,0,0,0-3.548-.51,21.946,21.946,0,0,1-4.444,1.843A3,3,0,0,0,36,55.994V59a1,1,0,0,1-1,1H29a1,1,0,0,1-1-1V55.994a3,3,0,0,0-2.144-2.869,21.946,21.946,0,0,1-4.444-1.843,2.951,2.951,0,0,0-1.425-.364,3,3,0,0,0-2.123.875L15.737,53.92a1,1,0,0,1-1.415,0L10.08,49.678a1,1,0,0,1,0-1.415l2.128-2.127a3,3,0,0,0,.51-3.548,21.946,21.946,0,0,1-1.843-4.444A3,3,0,0,0,8.006,36H5a1,1,0,0,1-1-1V29a1,1,0,0,1,1-1H8.006a3,3,0,0,0,2.869-2.144,21.946,21.946,0,0,1,1.843-4.444,3,3,0,0,0-.511-3.548L10.08,15.737a1,1,0,0,1,0-1.415l4.242-4.242a1,1,0,0,1,1.415,0l2.127,2.128a3,3,0,0,0,3.548.51,21.946,21.946,0,0,1,4.444-1.843A3,3,0,0,0,28,8.006V5a1,1,0,0,1,1-1h6a1,1,0,0,1,1,1V8.006a3,3,0,0,0,2.144,2.869,21.946,21.946,0,0,1,4.444,1.843,3,3,0,0,0,3.548-.511l2.127-2.127a1,1,0,0,1,1.415,0l4.242,4.242a1,1,0,0,1,0,1.415l-2.128,2.127a3,3,0,0,0-.51,3.548,21.946,21.946,0,0,1,1.843,4.444A3,3,0,0,0,55.994,28H59a1,1,0,0,1,1,1Z" style="fill:#006df0"/><path d="M32,14A18,18,0,1,0,50,32,18.021,18.021,0,0,0,32,14Zm0,34A16,16,0,1,1,48,32,16.019,16.019,0,0,1,32,48Z" style="fill:#006df0"/><path d="M33.495,22.156A7.006,7.006,0,0,0,25,29h2a4.985,4.985,0,0,1,1.848-3.882,5.053,5.053,0,0,1,4.239-1,4.964,4.964,0,0,1,3.8,3.8,5.034,5.034,0,0,1-3.611,5.923A3.023,3.023,0,0,0,31,36.741V39h2V36.741a1.009,1.009,0,0,1,.783-.97,7,7,0,0,0-.288-13.615Z" style="fill:#006df0"/><circle cx="32" cy="42" r="1" style="fill:#006df0"/></g></svg>
